<svg id="Capa_1" data-name="Capa 1" xmlns="http://www.w3.org/2000/svg" viewBox="0 0 613 675.02"><defs><style>.cls-1{fill:none;stroke:#fff;stroke-miterlimit:10;}</style></defs><title>add-note</title><path class="cls-1" d="M67.72,214.2H92.2V122.4H67.72S31,122.4,31,168.3,67.72,214.2,67.72,214.2Z" transform="translate(-30.5 0.5)"/><path class="cls-1" d="M67.72,336.6H92.2V244.8H67.72S31,244.8,31,290.7,67.72,336.6,67.72,336.6Z" transform="translate(-30.5 0.5)"/><path class="cls-1" d="M67.72,489.6H92.2V397.8H67.72S31,397.8,31,443.7,67.72,489.6,67.72,489.6Z" transform="translate(-30.5 0.5)"/><polygon class="cls-1" points="551.3 673.7 551.3 612.5 612.5 612.5 612.5 551.3 551.3 551.3 551.3 490.1 490.1 490.1 490.1 551.3 428.9 551.3 428.9 612.5 490.1 612.5 490.1 673.7 551.3 673.7"/><path class="cls-1" d="M643,0H153.4V28.7H615V477a122.73,122.73,0,0,1,28,23.5Z" transform="translate(-30.5 0.5)"/><path class="cls-1" d="M122.8,75.12V659.25a14,14,0,0,0,14.14,14H428.46l42.69.8a122.4,122.4,0,0,1,80-215,124.09,124.09,0,0,1,30.54,3.83l.06-5.63V75.12A13.94,13.94,0,0,0,567.66,61.2H136.93A14,14,0,0,0,122.8,75.12Z" transform="translate(-30.5 0.5)"/><path class="cls-1" d="M67.72,612H92.2V520.2H67.72S31,520.2,31,566.1,67.72,612,67.72,612Z" transform="translate(-30.5 0.5)"/></svg>