<svg id="Capa_1" data-name="Capa 1" xmlns="http://www.w3.org/2000/svg" viewBox="0 0 443.22 406.06"><defs><style>.cls-1{fill:none;stroke:#fff;stroke-miterlimit:10;}</style></defs><title>multiple-circuit</title><path id="_Compound_Path_" data-name="&lt;Compound Path&gt;" class="cls-1" d="M339.73,133.34a41.26,41.26,0,1,0-41.25-41.26A41.3,41.3,0,0,0,339.73,133.34Zm0-64.51a23.25,23.25,0,1,1-23.25,23.25A23.28,23.28,0,0,1,339.73,68.83Zm-235.58,240a41.26,41.26,0,1,0,41.26,41.26A41.3,41.3,0,0,0,104.16,308.88Zm0,64.51a23.26,23.26,0,1,1,23.25-23.26A23.28,23.28,0,0,1,104.16,373.39Zm314.18-115.1a74.1,74.1,0,0,0-68.21-46.18h-103a27.58,27.58,0,0,0-52.14,0h-103a56,56,0,0,1-50.21-31.94,27.57,27.57,0,0,0,0-47.15,56,56,0,0,1,50.21-31.94H266.77a73.51,73.51,0,1,0,0-18H92.09a74.1,74.1,0,0,0-68.21,46.18,27.58,27.58,0,0,0,0,54.66,74.1,74.1,0,0,0,68.21,46.18H195a27.58,27.58,0,0,0,52.14,0h103A56,56,0,0,1,400.34,262a27.57,27.57,0,0,0,0,47.15,56,56,0,0,1-50.21,31.94h-173a73.51,73.51,0,1,0,0,18h173A74.1,74.1,0,0,0,418.34,313a27.58,27.58,0,0,0,0-54.66ZM339.73,36.58a55.51,55.51,0,1,1-55.51,55.51A55.57,55.57,0,0,1,339.73,36.58ZM29.08,166.06l-.22,0A9.58,9.58,0,1,1,27.58,147a9.66,9.66,0,0,1,1.28.09l.23,0a9.58,9.58,0,0,1,0,18.92Zm192,64.63a9.58,9.58,0,1,1,9.58-9.58A9.59,9.59,0,0,1,221.11,230.69Zm-117,175a55.51,55.51,0,1,1,55.51-55.51A55.57,55.57,0,0,1,104.16,405.64ZM414.64,295.2a9.63,9.63,0,0,1-1.28-.08l-.23,0a9.58,9.58,0,0,1,0-18.92l.22,0a9.58,9.58,0,1,1,1.28,19.07Z" transform="translate(0.5 -18.08)"/></svg>