<?xml version="1.0" encoding="utf-8"?>
<!-- Generator: Adobe Illustrator 21.1.0, SVG Export Plug-In . SVG Version: 6.00 Build 0)  -->
<svg version="1.1" xmlns="http://www.w3.org/2000/svg" xmlns:xlink="http://www.w3.org/1999/xlink" x="0px" y="0px"
	 viewBox="0 0 512 512" style="enable-background:new 0 0 512 512;" xml:space="preserve">
<style type="text/css">
	.st0{fill:#F9ED24;}
	.st1{fill:#F7EC23;}
	.st2{fill:#010101;}
</style>
<g id="Yellow">
	<g>
		<g>
			<path class="st0" d="M235.6,249.4c0.4,0,0.7-0.1,1.1-0.1c1.4-0.1,1.7-2,0.3-2.5c-0.7-0.2-1.3-0.4-2-0.5c-0.1,0.8-0.2,1.6-0.3,2.5
				c3.3-0.2,6.5,0.3,9.7,0.3c0-0.8,0-1.7,0-2.5c-0.7,0-1.3,0-2,0c0.1,0.8,0.2,1.6,0.3,2.5c0.9-0.1,0.9-0.2,1.2,0.5
				c0.2,0.4-0.1,1.4-0.1,1.8c-0.1,0.9,0,1.9-0.3,2.8c0.3-0.3,0.6-0.6,0.9-0.9c-0.8,0.3-1.7,0.2-2.2,0.8c-0.6,0.6-0.5,1.8-0.5,2.5
				c0.8-0.2,1.6-0.4,2.3-0.6c-0.7-1.1-1.7-2.2-3-2.5c-0.5-0.1-5.4-0.1-5.4,0.2c-0.1-0.9-1-1.7-1.9-1.1c-0.1,0.1-0.1,0.1-0.2,0.2
				c0.6,0.4,1.3,0.7,1.9,1.1c0-1.3-0.5-4.1,0.3-5.2c-0.7,0-1.4,0-2.2,0c0.3,0.1,0.6,0.3,0.8,0.4c0.6,0.4,1.3,0.7,1.9,1.1
				c0-0.3,0-0.6-0.1-0.9c-0.2-1.3-2-1.8-2.5-0.3c-0.5,1.7-0.9,4.8,0.8,6c2.2,1.5,5.5-0.2,7.8,1c-0.2-0.4-0.4-0.7-0.6-1.1
				c0.1-0.3,0.2-0.5,0.3-0.8c0.5,0.3,1,0.6,1.5,0.9c0.3,1-0.4,0.8,0.5,0.6c0.3-0.1,0.6-0.3,0.9-0.5c0.6-0.5,0.7-1.1,0.8-1.8
				c0.2-1.3,0.7-4.6-0.3-5.6c-1.1-1.1-3.9-0.4-5.3-0.4c-1-0.1-2.3-0.4-3.3-0.1c-0.8,0.2-1.3,0.8-2,1.4c0.7,0.3,1.4,0.6,2.1,0.9
				c0-0.2,0-0.3,0-0.5c0.1-1.5-2-1.6-2.5-0.3c-0.3,0.9-0.5,1.8-0.6,2.7c0.8,0,1.7,0,2.5,0c0-0.2,0-0.4,0-0.6c0-1.4-2.2-1.8-2.5-0.3
				c-0.2,1.1-0.3,2.1-0.1,3.2c0.2,1.5,2.6,1.6,2.5,0c0-0.7,0-1.3,0-2c-0.8,0-1.7,0-2.5,0c0.1,0.9,0.2,1.7,0.4,2.6
				c0.3,1.4,2.5,1.1,2.5-0.3c0-0.9,0-1.8,0.1-2.7c-0.8,0-1.7,0-2.5,0c0.1,0.8,0.2,1.5,0.3,2.2c0.3,1.2,2.1,1.2,2.4,0
				c0.1-0.3,0.1-0.5,0.2-0.8c-0.8-0.1-1.6-0.2-2.5-0.3c0,0.8,0,1.6,0.1,2.4c0,1.3,2.3,1.8,2.5,0.3c0-0.3,0-0.5,0.1-0.8
				c-0.3,0.3-0.6,0.6-0.9,0.9c1.9-0.6,4.4,0.4,6.3,0.5c1,0.1,2.1-0.2,2.3-1.4c0.2-1.1-0.7-1.7-1.6-1.9c-0.9-0.2-1.9-0.1-2.8-0.2
				c-0.4,0-3.4,0.2-3.6,0c0.1,0.5,0.1,1,0.2,1.5c0.1-0.1,0.1-0.2,0.2-0.3c-0.4,0.2-0.7,0.4-1.1,0.6c1.4-0.2,3,0.1,4.4,0.2
				c1,0.1,2.7,0.6,3.6-0.1c1.5-1,0.5-4,0.3-5.4c-0.1-0.8-1.2-1.1-1.8-0.7c-2,1.2-1.3,3.7-0.8,5.6c0.5-0.5,1-1,1.5-1.5
				c-1.5-0.4-2.7-1.2-4.3-1.3c-1.6-0.1-3.3,0.1-4.9,0.5c-1.4,0.3-1.1,2.5,0.3,2.5c2.6-0.1,5.2-0.1,7.8-0.2c1.2,0,1.8-1.7,0.6-2.3
				c-2.3-1.2-4.5-0.7-6.9-1.1c0,0.8,0,1.6,0,2.4c1.6-0.3,3.1-0.2,4.6,0c0.9,0.1,1.8,0.4,2.5-0.2c0.5-0.3,0.7-0.8,0.6-1.4
				c-0.2-1-1-1.3-2-1.4c-2-0.3-4.1,0.1-6.2-0.3c0.2,0.6,0.5,1.2,0.7,1.8c0.4-0.9,5.6,0.9,6.8-0.1c1-0.8,0.7-2.2-0.4-2.8
				c-0.7-0.4-1.7-0.2-2.4-0.2c-1.1,0-2.5-0.3-3.5,0.1c-1.3,0.4-1.7,1.9-1.2,3.1c0.2,0.4,0.7,0.7,1.1,0.6c0.3,0,0.6-0.2,0.9-0.3
				c0.5-0.1,3,0.4,1.5,0.3c-1.6-0.1-1.6,2.4,0,2.5c2.2,0.2,3.5-1.7,2.2-3.7c-0.6-1-1.7-1.5-2.8-1.7c-0.5-0.1-1-0.2-1.4,0
				c-0.3,0.1-0.5,0.2-0.7,0.4c-0.4,0.3-0.3,0.3,0.4,0c0.4,0.2,0.7,0.4,1.1,0.6c-0.6,0.7-0.4,0.9,0.5,0.6c0.4,0,0.8,0,1.2,0
				c0.4,0,0.8,0,1.2,0c0.8,0.2,1,0.1,0.6-0.6c0.2-0.4,0.4-0.7,0.6-1.1c-0.4,0.3-2.7-0.2-3.1-0.2c-0.7-0.1-1.4-0.3-2.2-0.3
				c-1.1,0.1-1.9,0.5-2.4,1.5c-0.3,0.7-0.1,1.7,0.7,1.8c1.1,0.2,2.2,0.3,3.4,0.3c0.7,0,3.2,0.3,3-0.3c0.2-0.5,0.4-0.9,0.6-1.4
				c0.3,0,0.2,0-0.2-0.1c-0.4,0-0.7-0.1-1.1-0.1c-0.6-0.1-1.2-0.1-1.8-0.2c-1.2,0-2.3,0.1-3.4,0.3c-1.2,0.2-1.2,2.2,0,2.4
				c2.1,0.3,4.4-0.1,6.3,0.9c0.2-0.8,0.4-1.6,0.6-2.3c-2.6,0.1-5.2,0.1-7.8,0.2c0.1,0.8,0.2,1.6,0.3,2.5c1.5-0.3,3.1-0.6,4.6-0.3
				c1.1,0.2,2.1,0.9,3.2,1.2c0.9,0.2,1.8-0.6,1.5-1.5c-0.1-0.4-0.9-2.5-0.4-2.8c-0.6-0.2-1.2-0.5-1.8-0.7c0.1,0.5,0.1,0.9,0.2,1.4
				c0.1,0.4,0.1,0.7,0.1,1.1c0.1,0.5,0.1,0.5-0.1,0.2c0,0-1.2-0.3-1.4-0.3c-0.7-0.1-1.3-0.1-2-0.2c-1.4-0.1-3.3-0.6-4,0.8
				c-0.3,0.5-0.2,1.1,0.2,1.5c1,0.9,2.5,0.6,3.8,0.7c0.7,0,1.7,0.2,2.5,0.1c1,0.3,1.5-0.2,1.3-1.6c-0.5-0.1-1-0.2-1.5-0.2
				c-2-0.3-6.1-1.3-6.5,1.5c0.8,0.1,1.6,0.2,2.5,0.3c0-0.8,0-1.6-0.1-2.4c0-1.4-2.1-1.7-2.5-0.3c-0.1,0.3-0.1,0.5-0.2,0.8
				c0.8,0,1.6,0,2.4,0c-0.1-0.5-0.2-1-0.2-1.5c-0.1-1.6-2.3-1.6-2.5,0c-0.1,0.9-0.1,1.8-0.1,2.7c0.8-0.1,1.6-0.2,2.5-0.3
				c-0.2-0.6-0.3-1.3-0.3-1.9c-0.2-1.6-2.4-1.6-2.5,0c0,0.7-0.1,1.3,0,2c0.8,0,1.7,0,2.5,0c-0.1-0.9-0.1-1.6,0-2.5
				c-0.8-0.1-1.6-0.2-2.5-0.3c0,0.2,0,0.4,0,0.6c0,1.7,2.3,1.6,2.5,0c0.1-0.7,0.2-1.4,0.5-2c-0.8-0.1-1.6-0.2-2.5-0.3
				c0,0.2,0,0.3,0,0.5c0,1.1,1.4,1.6,2.1,0.9c1.1-1,2.1-0.6,3.4-0.5c1.2,0.1,2.9-0.4,4.1,0c-0.3-0.3-0.6-0.6-0.9-0.9
				c0.2,0.8,0.1,2.1,0,2.9c0.1,0.6-0.1,1.1-0.5,1.6c-0.3,0-0.5,0.1-0.8,0.2c-0.7,0.6-1.1,1-0.8,2.1c0.2,0.7,0.9,1,1.5,0.9
				c0.9-0.2,1.4-0.8,1.5-1.7c0-0.4-0.3-0.9-0.6-1.1c-1.2-0.6-2.9-0.6-4.1-0.7c-0.7-0.1-2.1,0.2-2.7-0.1c-1.2-0.6-1-2.3-0.6-3.3
				c-0.8-0.1-1.6-0.2-2.5-0.3c0,0.3,0.1,0.6,0.1,0.9c0,1,1,1.5,1.9,1.1c1.5-0.7,0.7-2.8,0.1-3.8c-0.6-0.8-1.6-0.8-2.2,0
				c-1.2,1.6-0.7,4.6-0.6,6.5c0,0.9,1.1,1.6,1.9,1.1c0.1-0.1,0.1-0.1,0.2-0.2c-0.6-0.4-1.3-0.7-1.9-1.1c0.1,1.2,0.6,2.1,1.9,2.3
				c2.3,0.3,5.4-0.8,6.9,1.3c0.7,1,2.3,0.6,2.3-0.6c0.2-0.7,0.1-0.9-0.4-0.7c0.5,0,0.9-0.1,1.3-0.3c0.5-0.2,0.6-0.4,0.9-0.9
				c0.5-1.1,0.4-3,0.4-4.2c0.1-1.2,0.1-2.8-0.9-3.6c-0.9-0.8-2.3-0.5-3.4-0.4c-1.5,0.2-1,2.3,0.3,2.5c0.7,0.1,1.3,0.1,2,0
				c1.6-0.1,1.6-2.5,0-2.5c-3.3,0-6.4-0.4-9.7-0.3c-1.3,0.1-1.8,2.3-0.3,2.5c0.7,0.1,1.4,0.2,2,0.5c0.1-0.8,0.2-1.6,0.3-2.5
				c-0.4,0-0.7,0.1-1.1,0.1C234,247,234,249.5,235.6,249.4L235.6,249.4z"/>
		</g>
	</g>
	<g>
		<g>
			<path class="st0" d="M243.4,252.8c0.8-0.1,1.4-0.5,1.4-1.3c0-0.2,0-0.5-0.1-0.7c0.1,0.2-0.2-0.7-0.2-0.4
				c-0.1-0.7-0.5-1.3-1.3-1.3c-0.6,0-1.3,0.6-1.3,1.3c0,0.3,0.1,0.5,0.2,0.8c0.1,0.1,0.1,0.3,0.2,0.4c0,0-0.1-0.1-0.1-0.2
				c0.1-0.3,0.2-0.6,0.4-0.9c0,0,0,0.1-0.1,0.1c0.3-0.1,0.6-0.2,0.9-0.4c0,0-0.1,0-0.1,0c-0.7,0.1-1.3,0.5-1.3,1.3
				C242.2,252.2,242.7,252.9,243.4,252.8L243.4,252.8z"/>
		</g>
	</g>
	<g>
		<g>
			<path class="st1" d="M404.4,391.9c-1.9-3.9-3.7-7.9-5.6-11.8c-13,7.6-25.9,15.1-38.9,22.7c1.9,2.8,3.7,5.8,5.4,8.8
				c0.7,1.3,1.2,2.6,1.9,3.9c0.7,1.5,0.5,1-0.6-1.4c0.3,0.8,0.6,1.6,0.9,2.4c1.1,3,2,6,2.7,9c0.4,1.7,0.7,3.4,1,5
				c1,4.7-0.4-4.4,0.1,0.8c14-3.8,28-7.6,41.9-11.4c-18.2-34.6-48.8-63.4-84.7-78.9c-1.8,13.7-3.6,27.4-5.4,41.1
				c1.8-0.4,3.5-0.7,5.3-1c5.7-1.1-3.4,0.2,0.2,0c3.3-0.2,6.5-0.6,9.8-0.6c3-0.1,6,0,8.9,0.1c1.2,0.1,2.4,0.1,3.6,0.2
				c1.2,0.1,2.4,0.2,3.6,0.3c-3-0.4-3.3-0.5-0.7-0.1c5.9,1.1,11.7,2.3,17.4,4.1c2.8,0.9,5.8,1.7,8.4,3c-4.8-2.5,0,0,0.9,0.4
				c2.7,1.2,5.6,2.5,8.4,3.4c15.5,4.4,33.1-3.8,47.4-9.3c12.8-4.9,26.8-9.7,38.5-16.9c8.6-5.3,14.9-13,17.1-22.9
				c1.8-8,1.5-16.8,1.9-25c0.6-13.9,1.2-27.9,1.9-41.8c1.3-28.6,2.6-57.1,3.8-85.7c0.7-15.7,2.6-32.5-2.9-47.6
				c-2.7-7.6-6.6-14.5-10.2-21.7c-0.4-0.9-1.7-2.6-1.7-3.5c1.2,3,1.4,3.4,0.6,1.1c-0.3-0.7-0.5-1.4-0.7-2.1c-1.2-4.3,0.9,0.1-0.2,1
				c-0.1-1-0.1-1.9-0.1-2.9c-0.6,3.5-0.7,4.1-0.2,1.6c-12.5,3.3-25.1,6.6-37.6,9.9c0.6,0.5,1.1,1.1,1.6,1.6c1.1,1.2,0.8,0.7-1.1-1.6
				c0,0.1,2.3,3.9,2.4,4c-0.3-0.9-0.7-1.7-1-2.6c0.4,1,0.7,1.9,0.9,2.9c1.7,4.1-0.2-4.7,0.2,0.1c0.9,11.3,7.9,20.5,19.5,22.1
				c11.7,1.6,20.7-5.5,24.7-16.1c11.1-29.8-10.2-63.4-37.3-75.7c-16-7.3-33.2-9.6-50.7-10.1c-15.2-0.4-31-1.3-46.2-0.3
				c-9,0.6-18,2.3-26.9,3.8c-1.9,0.3-3.8,0.6-5.7,0.9c-6.4,1.1,4.7-0.4-1.8,0.2c-4.6,0.4-9.1,0.9-13.7,1.2
				c-15.7,1-31.4,0.8-47.1,0.7c-32.8-0.2-65.5-0.7-98.3,0.1c-18.3,0.4-36.6,1.2-54.9,2.7c-9.1,0.7-18.2,1.6-27.3,2.7
				c-5.9,0.7-11.9,1.2-17.7,2.3c6.9-1.4-0.1,0.4-0.6-0.3c3.5,0,6.5,1.3,9.1,4c4.9,5.6,5.6,12,2.1,19.3c-6.5,3.7-13,7.4-19.4,11.1
				c9,0.9,18,1.9,27,2.8c-2-14.7-4-29.5-6-44.2c-2.3,0.9-5.6,0.9-7.7,2c2.8-1.5,4.4-0.5,1.9-0.3c-1.4,0.1-2.7,0.2-4.1,0.3
				c-6.7,0.5-13.4,0.9-20.1,2.2c-15.8,3.1-28.7,15-32.8,30.6c-3.8,14.4-2.1,30.6-2.2,45.4c-0.1,14.6-0.2,29.2-0.3,43.8
				c-0.2,29.1-0.5,58.2-0.5,87.2c0,14.1,0.2,28.2,1.5,42.3c1.4,14.7,2.1,32.5,10.6,45.3c10.5,15.7,29.9,20.1,47.6,21.3
				c13.5,0.9,26.9-1.2,40.3-2.6c28.6-2.9,57.6-0.1,86.2,1.9c29.4,2,58.8,4.2,88.3,5.9c14.6,0.8,29.1,1.5,43.7,2
				c13.9,0.4,28.1,0.3,41.6-3.1c7.5-1.9,15.2-5,21.6-9.4c3.7-2.5,7.3-5.4,10.8-8.3c1.2-1,2.4-2,3.6-3c0.8-0.7,1.6-1.3,2.4-2
				c-0.7,0.5-1.4,1.1-2.1,1.6c0.4-0.9,3.1-2.1,3.9-2.6c0.9-0.5,1.8-1,2.7-1.5c-2.8,1.1-3.5,1.4-1.9,0.9c3.1-0.8,6.2-1.7,9.3-2.4
				c8.6-2,16.5-5.3,23.2-11.1c13.9-12,16-31.6,11.8-48.5c-1.9-7.5-5.3-14.5-8.5-21.5c-2.5-5.4,1.5,4.4-0.5-1.1
				c-0.6-1.6-1.2-3.2-1.7-4.9c-0.3-1.1-1.5-3.8-1.2-5c0.4,3.2,0.5,3.5,0.3,1c0.1-2.6,0-2.2-0.4,0.9c-3.4,4.5-6.9,9-10.3,13.4
				c-3.4,1.3-4.3,1.6-2.6,1.1c1.2-0.3,0.7-0.3-1.3,0.1c-4.4,0.5-0.2,0.5,0.5,0.3c-1.2-0.1-2.4-0.3-3.7-0.4c1.7,0.5,1.5,0.4-0.4-0.4
				c-4.2-2.1,0.4,0.5,0.5,0.5c-0.8,0.1-3.7-3.7-1.7-1.3c2.7,3.4-2.5-3.4-0.9-1.4c2.1,2.7,0-0.1-0.6-1.7c1.3,3.7-0.2-5.6-0.3-1.3
				c15,0,30,0,45,0c-4.2-35.1,3.2-70.1,3.3-105.2c0.1-18.3-1.8-37.3-7.9-54.6c-4-11.4-9.5-20.8-19.4-28c-8.4-6.1-18.9-8-29-8.7
				c-18.6-1.4-37.5-0.3-56.1-0.4c-19.2,0-38.4-0.1-57.6-0.1c-38-0.1-76-0.4-114.1,0.4c-43.1,0.9-86.2,3.2-129,8.7
				c-9.2,1.2-16.7,4.7-20.6,13.8c-3.5,8.3-1.7,18.1,4.7,24.6c-0.1-0.1,2.1,2.1,2,2.2c-0.1,0.2-3.1-4.8-0.8-1c0.9,1.5,1.7,3,2.6,4.5
				c1.6,2.5-1.4-4.1-0.5-1.3c0.3,0.9,0.7,1.9,1,2.8c0.7,2.2,1.3,4.4,1.7,6.6c0.2,1.1,1.1,6.5,0.6,3.1c-0.5-3.7,0.2,3.1,0.3,3.9
				c0.3,4.5,0.4,9,0.5,13.5c0.1,9.8-0.2,19.6-0.9,29.3c-0.4,5-0.8,10.1-1.4,15.1c-0.1,0.9-0.2,1.9-0.3,2.8c-0.4,3.4,0.6-3.8,0-0.4
				c-0.4,2.8-0.8,5.6-1.3,8.4c-3.2,19.2-9.2,37.5-13.7,56.4c-5,20.9-5.5,42.4,4.9,61.8c10.3,19.1,30.6,30.6,52.4,28.5
				c11.2-1.1,22.4-5.1,33.7-5.6c-0.3,0-3.9,0.5-1.2,0.2c1.3-0.2,2.6-0.3,3.8-0.5c2.2-0.3,4.5-0.5,6.7-0.7c5.5-0.5,10.9-0.9,16.4-1.3
				c40.5-2.4,81.2,0,121.8-1.5c46.9-1.8,93.7-7,140.3-12.2c11.3-1.3,20.5-7.6,22.1-19.5c1.5-11.5-5.4-21-16.1-24.7
				c-24.2-8.4-50.6-10.2-76-12c-24.8-1.8-49.6-2.5-74.4-2.3c-50.4,0.4-100.7,4.4-150.8,10.1c-30,3.4-59.9,7.4-89.8,11.6
				c9.2,9.2,18.5,18.5,27.7,27.7c3.6-12.6,8-24.9,12.9-37.1c1.3-3.2-2.2,4.9,0.2-0.5c0.6-1.4,1.2-2.8,1.9-4.2
				c1.4-3.1,2.8-6.1,4.3-9.1c2.9-6,6.1-11.9,9.4-17.8c-13,0-25.9,0-38.9,0c10.8,15.1,19.9,31.3,27.4,48.3
				c3.8,8.7,16.8,13.1,25.4,10.3c9.3-3,16.7-11.5,16.5-21.7c-0.3-16,0.7-32.1,2.4-48c0.8-7.8,1.8-15.7,2.8-23.5
				c-0.8,5.6,0.2-1.3,0.3-2.5c0.3-1.9,0.5-3.8,0.8-5.6c0.6-4.1,1.1-8.1,1.7-12.2c4.6-33.1,9.1-66.4,7.1-99.9
				c-0.7-11.7-9.9-23.1-22.5-22.5c-12.1,0.5-22.6,9.9-22.5,22.5c0.6,66.1-20.9,134.7,5.3,198.6c4.3,10.5,12.7,17.7,24.7,16.1
				c11-1.5,19.4-10.8,19.5-22.1c0.4-30.4,2.3-60.7,5.9-90.9c0.2-1.9,0.5-3.8,0.7-5.8c0.1-1.1,0.8-7,0.2-1.7c0.4-3.5,1-7,1.5-10.6
				c1.1-7.4,2.3-14.7,3.6-22c2.7-15.3,5.9-30.5,9.4-45.6c-14.5,0-28.9,0-43.4,0c0.5,3.6,1,7.2,1.5,10.7c0.5,3.6-0.7-5.4,0.1,0.8
				c0.2,1.6,0.4,3.3,0.6,4.9c0.9,6.8,1.8,13.7,2.6,20.5c1.7,13.7,3.2,27.4,4.4,41.1c2.4,27.4,3.5,54.9,2.1,82.4
				c14.7-2,29.5-4,44.2-6c-1.6-7.4-2.9-14.8-4-22.3c-0.8-4.9,0.4,3.9-0.2-1.5c-0.2-1.9-0.5-3.7-0.7-5.6c-0.4-3.4-0.7-6.9-1-10.3
				c-1.1-14.7-1.4-29.5-0.6-44.3c0.4-7.2,0.9-14.4,1.7-21.6c0.2-1.9,0.4-3.7,0.7-5.6c0.3-2.8-0.6,3.9,0.1-0.6
				c0.6-3.7,1.2-7.4,1.8-11.2c1.3-7,2.5-14.1,4.5-20.9c0.1-0.4,0.3-0.8,0.4-1.2c0.8-2.2,0.5-1.6-0.8,1.7c0.4-0.3,1.9-3,1.9-3.3
				c-0.7,0.9-1.4,1.8-2,2.6c1.3-1.2,1.1-1.1-0.6,0.2c-1.3,1.2-2.9,2-4.8,2.4c-4.2,0.3-5,0.4-2.6,0.4c-7.2-5.5-14.5-11-21.7-16.5
				c2.7,6.9,4.9,13.9,6.5,21.1c0.8,3.4,1.4,6.9,2,10.3c0.1,0.9,0.3,1.7,0.4,2.6c-0.4-2.8-0.4-3.3-0.2-1.6c0.2,1.8,0.4,3.5,0.6,5.3
				c1.4,14.5,1.3,29.1,0.7,43.7c-1.2,29.5-4.4,59-2.5,88.6c0.7,11.7,9.8,23.1,22.5,22.5c13.3-0.6,21.1-9.9,22.5-22.5
				c0.7-6.4,1.4-12.9,2.4-19.2c-0.8,5.4,0.2-1,0.2-1.7c0.2-1.6,0.5-3.2,0.7-4.8c0.5-3.2,0.9-6.4,1.4-9.6c2-13.1,4.3-26.1,6.8-39.1
				c5-26,11.1-51.8,18-77.4c-14.7-2-29.5-4-44.2-6c0.2,56.5,0.4,112.9,0.5,169.4c0,9.5,6.9,19.5,16.5,21.7c9,2,21.3-1.1,25.4-10.3
				c15.1-33.9,29.1-68.3,39.9-103.8c5.1-16.7,9.7-33.7,13-50.9c4-20.3,5.8-41.2-0.2-61.3c-3.7-12.3-15.5-18.1-27.7-15.7
				c-19.3,3.8-39,16.3-46.8,34.8c-8.4,19.9,2.2,38.3,16,52.4c2.1,2.2,4.3,4.3,6.4,6.6c0.8,0.8,2.1,3.1,3.2,3.6
				c-0.5-0.3-2.8-4.2-0.6-0.7c0.6,0.9,1.2,1.8,1.7,2.7c1,1.6,1.7,3.3,2.6,4.9c1.2,2.2-0.7-1.5-0.7-1.7c-0.1,0.3,0.9,2.5,1.1,3
				c1.2,3.6,2.2,7.3,2.9,11c0.4,1.9,0.7,3.8,1,5.7c0.5,3.2-0.4-4.3-0.2-1.1c0.1,0.8,0.2,1.6,0.3,2.4c0.4,4.4,0.7,8.8,0.8,13.2
				c0.1,4.3,0.1,8.6-0.2,12.9c-0.1,1.8-0.3,3.7-0.5,5.5c-0.3,3.4,0.8-3.8,0-0.5c-0.3,1.2-0.4,2.4-0.7,3.6c-0.5,2.4-1.2,4.7-1.9,7.1
				c-0.4,1.1-0.8,2.2-1.2,3.3c-0.9,2.8,1.9-3.8,0.5-1.3c-1,1.7-1.8,3.6-2.8,5.3c-0.5,0.9-1.1,1.7-1.6,2.5c-0.4,0.5-2.4,3.4-0.4,0.7
				c2-2.6-1.9,2-2.7,2.7c-0.5,0.5-1.1,1-1.6,1.5c-0.3,0.2-4,3.4-1.1,1c2.3-2,0.5-0.4-0.1-0.1c-1.1,0.6-2.1,1.3-3.2,1.9
				c-0.6,0.3-1.5,0.6-2,1c2.9-1.2,3.6-1.5,2-0.9c-0.7,0.3-1.4,0.5-2.1,0.7c-10.8,3.3-17.6,13.5-16.1,24.7
				c1.5,11.1,10.8,19.3,22.1,19.5c42.3,0.7,84.5,3.1,126.6,7.2c10.5,1,21,2.2,31.5,3.4c8.3,1,16.7,2.5,25,1.7
				c13.6-1.4,24.9-6.3,33.1-17.6c7.6-10.5,7.7-24.1,4.9-36.3c-1-4.3-2.5-8.4-3.7-12.6c-0.6-1.9-1.1-3.9-1.5-5.8
				c-0.2-1.1-0.5-2.2-0.7-3.4c-0.9-4.8,0.5-0.3-0.1,0.1c0.7-0.5-0.7-12.1-0.6-13.6c0-4.6,0.3-9.2,0.8-13.7c0.2-2.3,0.3-4.7,0.8-6.9
				c-0.2,0.7-0.7,5-0.1,0.8c0.2-1.2,0.3-2.3,0.5-3.5c0.7-4.6,1.5-9.3,2.2-13.9c1.7-10.6,3.4-21.3,4.4-32.1
				c0.9-9.1,1.1-18.4,0.1-27.5c-0.9-8.6-3.2-16.1-9.4-22.6c-4.8-5-11.7-7.9-18.2-10c-21.2-6.9-43.8-1.3-64.6,4
				c-4.8,1.2-9.5,2.4-14.4,3.4c-2.2,0.4-4.4,0.8-6.7,1.2c-0.7,0.1-4.8,0.7-1.8,0.3c3.2-0.4-2.2,0.2-2.8,0.3c-10,1-19.9,0.3-29.9,0.5
				c-8.3,0.2-16.1,3-22.2,8.9c-5.2,5.1-7.4,12-9.9,18.7c-3.6,9.4-7,18.9-9.7,28.6c-6.2,22.7-6.3,45.2-2.9,68.3
				c1.5,10.1,3.6,20.2,5.9,30.1c1.3,5.9,2.6,11.7,5.6,17c4,7.1,10.9,12,18.5,14.5c9.7,3.2,19.9,1.1,29.7-0.2
				c10.4-1.3,20.8-2.7,31.3-4c10.4-1.3,20.8-2.7,31.3-4c7.5-1,15.7-0.9,22.5-4.6c8.8-4.7,13.6-13.7,13.8-23.6
				c0.3-10.4-0.8-20.9-1.3-31.3c-0.4-10.6-0.9-21.3-1.3-31.9s-0.9-21.3-1.3-31.9c-0.3-6,0-12.6-1.5-18.5c-2-7.9-7.3-14.4-14.5-18.2
				c-10.2-5.4-24.3-4.8-35.7-4.2c-11.1,0.5-22.3,2.1-33.1,4.7c-11.1,2.6-23.8,5.9-31.9,14.4c-9.4,9.9-9.6,23-10,35.8
				c-0.6,20.8-1.4,41.7-1.9,62.5c-0.2,8.2,1.8,16.8,8,22.6c5.8,5.4,13.6,8,21.5,7.5c11.7-0.6,23.5-2.5,35-4.3
				c10.3-1.6,20.5-3.5,30.6-5.8c9.2-2.1,16.9-12.2,16.5-21.7c-0.4-10-6.7-18.9-16.5-21.7c-0.7-0.2-1.3-0.4-2-0.6
				c-1.6-0.6-0.9-0.3,2.2,0.9c-0.4-0.2-0.8-0.4-1.2-0.7c-1.6-1-1.5-1,0,0.2c1.5,1.2,1.6,1.3,0.1,0.1c-0.3-0.3-0.7-0.6-1-0.9
				c-0.5-0.5-1-1-1.4-1.5c-1.1-1.3-0.7-0.7,1.3,1.8c0,0.1-3.5-6.1-3.5-6.1c1.2,3,1.5,3.7,0.9,2.1c-0.2-0.7-0.5-1.3-0.7-2
				c-0.3-1.1-0.5-2.3-0.8-3.5c-0.7-2.3,0.2,6.3,0.1,0.6c0-1.6-0.1-3.1-0.1-4.6c0-1.6,0.1-3.1,0.2-4.6c0.4-6-1.1,4.5,0.2-1.4
				c1.5-6.8,3.3-13.4,5.3-20c3.7-12.2-4.5-23.7-15.7-27.7c-14.8-5.2-31.2-5.4-46.3-1.5c-5.2,1.3-10.9,5.5-13.4,10.3
				c-3,5.7-3.2,11-2.3,17.3c5.7,38.3,11.4,76.7,17.1,115c0.8,5.2,6,10.9,10.3,13.4c4.8,2.8,11.9,4,17.3,2.3
				c12.7-4.1,17.6-15.2,15.7-27.7c-5.7-38.3-11.4-76.7-17.1-115c-5.2,9.2-10.5,18.5-15.7,27.7c1.1-0.3,2.3-0.5,3.4-0.8
				c5.3-1.3-3,0,0.1-0.1c2.6-0.1,5.2-0.3,7.8-0.2c0.3,0,3.4,0.1,3.5,0.3c0,0-4.6-1-0.8,0c2.8,0.7,5.6,1.4,8.4,2.4
				c-5.2-9.2-10.5-18.5-15.7-27.7c-5.5,18.3-10.2,37.8-5,56.8c5,18.2,18.3,33.7,36.8,39c0-14.5,0-28.9,0-43.4
				c-10.5,2.3-21,4.4-31.6,6c-1.3,0.2-2.6,0.4-3.9,0.6c-3.5,0.5,3.7-0.4,0.2,0c-2.6,0.3-5.2,0.6-7.7,0.9c-2.6,0.3-5.2,0.5-7.8,0.8
				c-1.2,0.1-2.3,0.2-3.5,0.3c-8,0.9,5.8-8.9,13.1,8.1c1,3.8,2,7.6,3.1,11.4c-1.1-8.1,0.3-17,0.5-25.2c0.3-9.1,0.6-18.2,0.8-27.3
				c0.1-4.2,0.3-8.5,0.4-12.7c0-1.6,1.4-12,0.4-12.6c0.2,0.2-1.1,4.6-0.3,2.4c0.1-0.4,0.6-1.6,0.5-2c0.3,2.7-5.8,7.7-6,7.8
				c0.7-0.5,2.8-1.1,0.1-0.3c-3.2,1,2-0.6,2.8-0.9c2.3-0.8,4.7-1.5,7-2.1c3.8-1,7.7-1.9,11.6-2.7c0.9-0.2,1.8-0.3,2.7-0.5
				c0.8-0.1,4.6-0.5,1.5-0.3c-2.9,0.2,0.2,0,0.6-0.1c1.2-0.1,2.4-0.3,3.6-0.4c3.9-0.3,7.9-0.5,11.9-0.5c2.1,0,4.3,0,6.4,0.1
				c1.8,0.1,5.7,1.1,7.3,0.5c-1.1,0.5-3.5-0.6-4.5-1.1c-1.5-0.7-9.8-12.8-9.5-14.6c-0.3,1.9,0.2,4.4,0.3,6.3c0.2,4.7,0.4,9.3,0.6,14
				c0.4,9,0.8,18,1.1,26.9c0.4,10,0.8,20,1.3,29.9c0.2,5.3,0.4,10.6,0.7,16c0.1,2.3,0.2,4.7,0.3,7c0.1,1.3,0.1,2.7,0.2,4
				c0.1,2.9-1.2,3,0.3-1c1.9-3.3,3.9-6.6,5.8-9.9c4.7-5.5,15.4-5.2,7.5-4.2c-1.6,0.2-3.3,0.4-4.9,0.6c-2.6,0.3-5.2,0.7-7.8,1
				c-6.5,0.8-13,1.7-19.5,2.5c-12.4,1.6-24.7,3.2-37.1,4.8c-5,0.6-10.2,1.7-15.2,1.7c-1.2,0-4.6-1-1,0.1c2.9,0.9,4.9,1.3,7.1,3.6
				c0.6,0.6,3.3,4.1,2.8,4.8c0.1-0.2-1.2-4.8-1.2-5c-1.3-5.6-2.6-11.2-3.7-16.9c-0.6-3.1-1.2-6.3-1.8-9.4c-0.2-1.3-0.4-2.5-0.6-3.8
				c-0.1-0.8-1.5-6.9-0.3-1.6c-1.3-5.4-1.2-11.6-1.2-17.1c0-3.2,0-6.3,0.2-9.5c0.1-1.3,0.2-2.5,0.3-3.8c0.5-6.3-0.9,4.6,0.2-1.5
				c2-11.8,5.5-23.2,9.6-34.4c1-2.7,2-5.3,3-8c0.5-1.4,0.9-3.2,1.7-4.4c-1.3,1.9-1,2.9-3,4.7c3.1-2.9-8.4,6.2-9.6,4.3
				c0.1,0.2,4.5,0.2,4.7,0.2c3.2,0.1,6.5,0.2,9.7,0.2c13.6-0.1,27.3-1.8,40.6-4.6c11.3-2.4,22.4-5.9,33.8-7.9
				c1.2-0.2,2.4-0.5,3.6-0.6c-5.3,0.5-1.1,0.2,0.2,0.1c2.6-0.2,5.2-0.3,7.9-0.2c0.6,0,2.8-0.1,3.5,0.2c-0.8-0.1-1.7-0.2-2.5-0.3
				c0.9,0.1,1.7,0.3,2.6,0.5c1.4,0.3,2.8,0.8,4.2,1.1c4.3,1-2.7-2.2,0.6,0.2c-2.9-2.1-4.4-3.9-5.9-8c1.6,4.6-0.1-4.1,0-0.7
				c0.1,2.6,0.3,5.2,0.4,7.8c0.1,5.8-0.2,11.6-0.8,17.4c-0.2,2.3-0.5,4.6-0.8,7c-0.7,5.7,0.6-3.5,0,0.1c-0.2,1.4-0.4,2.9-0.6,4.4
				c-0.9,5.8-1.9,11.6-2.8,17.4c-3.9,24.4-7,49.2-0.4,73.4c1.3,4.8,3.1,9.4,4.2,14.3c0.2,0.9,0.3,2.4,0.6,3.2
				c-1.4-3.1-0.4-3.6-0.4-1.3c0.1,5,1-3.8,0.2-0.8c-0.5,1.6-0.2,1,0.9-1.9c-1.1,1.8-1.1,1.8,0.1,0.1c0.3-0.4,0.6-0.8,0.9-1.3
				c-1.7,1.6-1.2,1.2,1.6-1.2c-3,1.9,1.4-0.7,2-0.6c-0.4-0.1-2.7,0.7-3.1,0.9c-2.4,1.3,5.8-0.2,1.3-0.1c-4.4,0.1-8.7,0-13.2-0.5
				c-56.1-6.6-112.2-11-168.7-12c2,14.7,4,29.5,6,44.2c17.7-5.5,32.5-18.1,41.2-34.4c9.3-17.4,12.1-37.4,11.4-56.9
				c-0.7-18.5-3.2-36.7-11-53.5c-3.7-8-9.2-15.1-15.3-21.4c-2.3-2.4-4.7-4.7-7-7.1c-1-1-1.9-2-2.9-3.1c-3.5-3.9,1.9,3.5-0.6-0.7
				c-0.5-0.8-3.3-6-1.5-2.3c1.6,3.1,0.4,0.8,0.2-0.2c-0.5-2.8,0.5,5.2,0.4,2.3c-0.1-2.8-1.6,4.8-0.3,2c1.2-2.7-2.3,3.5-0.6,1
				c0.4-0.6,2.3-3.5,0.4-1c-1.8,2.5,0.4-0.3,0.9-0.7c0.8-0.8,1.6-1.4,2.4-2.2c2.1-2-3.2,2-0.7,0.6c1.9-1,3.6-2.3,5.6-3.3
				c0.3-0.1,2.1-0.8,2.2-1.1c-2.6,1.1-3.2,1.3-1.6,0.7c0.5-0.2,1-0.4,1.5-0.5c2.3-0.8,4.7-1.3,7.1-1.8c-9.2-5.2-18.5-10.5-27.7-15.7
				c0.7,2.4,1.2,4.7,1.8,7.1c1.2,4.7-0.1-4,0.2,1.3c0.2,4.3,0.4,8.5,0.2,12.9c-0.1,1.9-0.2,3.7-0.4,5.5c-0.1,1.2-0.3,2.5-0.4,3.7
				c0.4-2.6,0.4-3.1,0.2-1.4c-0.7,4-1.4,8-2.2,11.9c-3.4,16.5-7.8,32.9-12.8,49.1c-5,16.2-10.6,32.2-16.8,48
				c-2.9,7.6-6,15.2-9.1,22.7c-1,2.4-1,2.3,0.1-0.2c-0.4,0.9-0.7,1.7-1.1,2.6c-0.9,2-1.7,4-2.6,6.1c-1.7,4-3.5,8-5.3,12.1
				c14,3.8,28,7.6,41.9,11.4c-0.2-56.5-0.4-112.9-0.5-169.4c0-11.2-8.5-20.6-19.5-22.1c-10.9-1.5-21.7,5.2-24.7,16.1
				c-14.7,53.7-24.8,108.5-31.2,163.8c15,0,30,0,45,0c-3.8-60.5,13.7-123.5-9-181.9c-3.7-9.5-11-16.4-21.7-16.5
				c-22.1-0.3-32.7,19.4-36.8,38.2c-4,17.9-6.6,36.2-8,54.4c-2.7,35.2,0.2,70.8,7.5,105.3c2.3,10.9,14.3,17.5,24.7,16.1
				c11.3-1.5,19-10.8,19.5-22.1c2.8-57.8-5.2-115.4-13-172.5c-1.3-9.3-12.8-16.9-21.7-16.5c-9.6,0.4-19.4,6.6-21.7,16.5
				c-14.4,61.7-22.2,125.1-23,188.5c14.7-2,29.5-4,44.2-6c-3-7.2-5.4-14.6-7.2-22.1c-0.9-3.8-1.7-7.6-2.3-11.4
				c-0.2-1.2-1.6-7.8-0.4-2c-0.4-1.7-0.4-3.6-0.6-5.4c-1.5-15.3-1.4-30.7-0.4-46c2-33.2,7.5-66.2,7.2-99.6c-15,0-30,0-45,0
				c0.9,16,0.5,32-0.9,47.9c-0.7,7.8-1.5,15.7-2.5,23.5c-0.3,2.2-0.5,4.4-0.8,6.6c-0.1,0.9-0.2,1.9-0.4,2.8c0.3-2.5,0.4-3,0.2-1.3
				c-0.6,4.1-1.1,8.1-1.7,12.2c-4.7,33.1-9.7,66.4-9.1,100c14-3.8,28-7.6,41.9-11.4c-7.5-17-16.6-33.1-27.4-48.3
				c-4.7-6.6-10.9-11.1-19.4-11.1c-7.8,0-15.6,4.3-19.4,11.1c-14,25.1-25.2,51.8-33.2,79.4c-2.2,7.7,0.2,16.3,5.8,21.9
				c6.2,6.2,13.6,6.9,21.9,5.8c5.8-0.8,11.7-1.6,17.5-2.4c1.6-0.2,3.2-0.4,4.9-0.7c1.2-0.2,5.6-0.8,0.8-0.1c3.2-0.4,6.5-0.9,9.7-1.3
				c12.4-1.6,24.7-3.2,37.1-4.6c24.7-2.9,49.5-5.4,74.4-7.3c48.9-3.7,98-5,146.9-2.2c13.5,0.8,27.1,1.9,40.6,3.4
				c1.8,0.2,3.7,0.4,5.5,0.7c-0.8-0.1-1.6-0.2-2.3-0.3c1.2,0.2,2.4,0.4,3.6,0.5c3,0.5,6,1,9,1.6c6.6,1.3,13.1,3.1,19.4,5.3
				c2-14.7,4-29.5,6-44.2c-40.8,4.5-81.5,9.1-122.5,11.4c-40.1,2.2-80.1,0.6-120.2,1.6c-21,0.5-42,2.2-62.8,5.6
				c-4.7,0.8-9.3,1.7-13.9,2.6c-1.2,0.2-2.4,0.4-3.6,0.7c-2.7,0.6,1.5-0.2,1.5-0.2c-1.4,1-6.4,0.2-8,0.2c-3.1,0,3.3,1,0.9,0
				c-0.6-0.3-1.3-0.4-1.9-0.6c-3.7-1,1.6,0.3,1.7,0.7c0-0.1-2.4-1.3-2.3-1.3c-2.4-1.3,0.7-1.1,1.4,1.2c-0.1-0.4-1.2-1-1.5-1.3
				c-0.6-0.6-1.3-1.2-1.9-1.9c-2.6-2.8,0.9-0.3,0.6,0.9c0.2-0.6-2.1-3.3-2.5-4.1c-0.4-0.8-0.8-1.7-1.2-2.5c-1.1-2.1,0.9,2.2,0.9,2.2
				c-0.1-1.6-1.2-3.7-1.6-5.3c-0.2-0.9-0.4-1.8-0.6-2.7c-0.8-4,0.1,4,0.2,1.2c0.1-4.1-1-9.4,0.4-13.4c0,0.1-0.7,4.1-0.1,1.5
				c0.3-1.2,0.4-2.4,0.7-3.6c0.6-2.7,1.2-5.4,1.9-8.1c4.8-18.5,10.2-36.7,13.3-55.6c3.7-22.9,5.6-46,5-69.1
				c-0.6-22.2-4.4-44.8-20.5-61.3c-5.3,12.8-10.6,25.6-15.9,38.4c72.7-9.4,146.1-9.3,219.2-9.2c37.1,0.1,74.1,0.2,111.2,0.3
				c8.5,0,17.1-0.3,25.6,0.2c0.8,0,1.5,0.2,2.3,0.2c2.5,0.1-2.1-0.2-2.2-0.3c0.9,0.6,3.9,1,5.1,1.3c2.3,0.5-1.8-0.6-1.9-0.9
				c-0.1-0.2,2.6,1.4,2.6,1.5c0,0.1-3.5-2.9-1.7-1.1c1.9,1.8-2.2-4-0.2-0.4c0.6,1.1,1.3,3.2,2.2,4c-1.9-1.7-1.4-3.6-0.6-1.1
				c0.2,0.8,0.5,1.5,0.8,2.3c1.4,4.2,2.5,8.5,3.4,12.9c0.4,1.7,0.6,3.5,1,5.2c0.8,4.3,0.2-0.2,0-0.8c0.3,0.7,0.2,1.8,0.3,2.6
				c0.5,4.4,0.8,8.8,0.9,13.2c1.3,37.8-7.7,75.4-3.2,113.2c0.7,6.2,2,11.3,6.6,15.9c3.9,3.9,10.3,6.8,15.9,6.6
				c12.5-0.6,22.1-9.9,22.5-22.5c0.5-17.2-12.2-32.7-28.5-37.5c-7-2-15.4-2.2-22.3,0.3c-7.9,2.9-14.3,7.7-16.8,16.3
				c-1.3,4.5-1.4,9.7-0.9,14.4c0.9,9.5,3.8,17.5,7.5,26.1c1.2,2.7,2.3,5.4,3.6,8c2.4,5.3-1.3-4.4,0.1,0.4c0.6,1.8,1.2,3.6,1.7,5.5
				c0.2,0.8,0.3,2.1,0.6,2.8c-0.1-1-0.2-2.1-0.4-3.1c0.1,0.9,0.2,1.9,0.2,2.8c0,1-0.5,3.3-0.1,4.2c-0.9-2.1,0.9-4.7,0.1-2
				c-1.3,4.6,2.6-4.6,0.3-0.5c-2.3,4,3.7-3.5,0.1-0.4c4-3.6,1.8-1.6,0.4-0.7c-1.5,0.8-0.8,0.5,2.1-0.8c-0.9,0.3-1.8,0.6-2.8,0.9
				c-5.2,1.5-10.5,2.4-15.6,4.3c-8.6,3.3-15.2,8-22.2,13.8c-2.2,1.8-4.3,4-6.7,5.5c5.4-3.4-2,1.1-3.4,1.8c-0.5,0.2-1,0.5-1.4,0.7
				c-2.3,1-2,0.9,0.9-0.3c-0.8,0.8-3.6,1.2-4.6,1.5c-1,0.3-2.1,0.6-3.2,0.8c-1.4,0.3-8.2,2.5-2.1,0.6c-5.4,1.7-12.8,0.8-18.3,0.8
				c-6.8-0.1-13.7-0.4-20.5-0.7c-15.2-0.6-30.4-1.5-45.7-2.4c-29.8-1.9-59.5-4.2-89.3-6.1c-14.4-0.9-28.9-1.9-43.4-2.1
				c-14-0.1-27.8,1.4-41.7,2.8c-6.7,0.7-13.4,1.3-20.2,1.2c-1.8,0-3.6-0.1-5.4-0.2c-0.2,0-6.1-0.6-2.4-0.1c3.7,0.4-2.2-0.4-2.4-0.5
				c-2.3-0.5-4.6-1.2-6.8-1.8c-5-1.4,2.9,1.6,0.2,0c-2.6-1.6,3.4,4,0.1,0.1c0.6,0.7,1.1,1.4,1.7,2.1c-1.1-2.2-1-1.8,0.3,1.2
				c-0.6-0.2-1.1-3.9-1.3-4.5c-0.7-2.9-1.1-5.8-1.6-8.7c-1.1-6.3,0.5,4.7-0.3-1.6c-0.2-1.9-0.4-3.8-0.6-5.7
				c-2.9-29-1.6-58.5-1.4-87.6c0.2-33.2,0.4-66.4,0.6-99.6c0-4.6,0-9.3,0.1-13.9c0-1.1,0-2.1,0-3.2c0-1.1,0.1-2.1,0.1-3.2
				c0.2-2.5,0.2-2.1-0.2,1.2c-0.4-0.5,0.8-3.2,0.9-3.8c0.5-1.6,0.3-1-0.8,1.8c1.3-2.1,1-1.8-0.9,1c2.9-3.3-4.6,2.3-0.7,0.4
				c4.4-2.1,0.1,0.5-0.9,0.2c0.6,0.2,3-0.8,3.6-1c6.2-1.3-3.6,0.2,0.5-0.1c2.7-0.2,5.5-0.4,8.2-0.6c7.3-0.5,15-1.1,21.9-3.7
				c10.6-4,17.7-13,16.1-24.7c-1.6-11.8-10.8-18.3-22.1-19.5c-9-0.9-18-1.9-27-2.8c-7.5-0.8-16,4.8-19.4,11.1
				c-6.4,11.8-4.5,26.3,5.4,35.6c10,9.4,22.2,9.1,34.9,7.4c0.4-0.1,3.6-0.7,0.9-0.1c-2.7,0.5,0.5-0.1,0.9-0.1
				c1.9-0.2,3.9-0.5,5.8-0.7c4.2-0.5,8.4-0.9,12.7-1.4c8.1-0.8,16.3-1.4,24.4-2c32.7-2.1,65.4-2.4,98.1-2.2
				c32.9,0.1,66.3,2,99.1-1.1c9.4-0.9,18.8-2.3,28.1-3.9c1.9-0.3,3.8-0.6,5.7-0.9c4.5-0.7-2.9,0.2,1.6-0.2c4.2-0.4,8.3-0.6,12.5-0.6
				c15.1,0,30.4-0.1,45.5,0.9c2,0.1,4.1,0.3,6.1,0.5c0.5,0,3.5,0.4,0.5,0c-3.1-0.4,0.7,0.1,1.3,0.3c4,0.7,7.9,1.6,11.8,2.9
				c0.8,0.3,1.6,0.6,2.5,0.9c3.1,1.1-0.1,0.5-0.8-0.4c0.8,1,3.3,1.7,4.4,2.3c1.4,0.8,2.7,2.2,4.2,2.8c-0.1,0-3.4-2.9-1.7-1.3
				c0.7,0.7,1.5,1.3,2.1,1.9c1.2,1.2,2.3,2.4,3.5,3.6c2.5,2.7-2.4-3.6,0.4,0.5c0.9,1.4,1.8,2.8,2.5,4.2c0.3,0.6,0.6,1.3,0.9,1.9
				c1.3,2.4-1.3-4.2-0.7-1.6c0.3,1.5,0.9,3,1.3,4.6c0.9,3.6-0.2-5-0.2,0c0,0.7,0,1.3,0,2c0,3.2-0.1-1.2,0.3-2
				c-0.8,1.3-1,3.8-1.5,5.3c14.7,2,29.5,4,44.2,6c-1.1-13.9-6-26.5-16.2-36.3c-11.6-11.1-34-7.2-37.6,9.9
				c-3.4,15.8,1.4,29.2,8.6,43.1c1.2,2.3,2.4,4.7,3.6,7.1c2.4,4.6-1.1-3.5-0.1-0.4c0.4,1.3,0.9,2.6,1.3,3.9c0.4,1.4,0.6,2.9,1,4.3
				c0.8,3.3-0.1-5.4-0.1,0.2c0,3.6,0.2,7.1,0.1,10.7c-0.8,27-2.4,54.1-3.6,81.1c-0.6,13.9-1.2,27.9-1.9,41.8
				c-0.3,6.6-0.6,13.3-0.9,19.9c-0.1,3.3-0.3,6.6-0.4,10c-0.1,1.3-0.1,2.7-0.2,4c-0.1,1.2-0.1,2.5-0.2,3.7c0.6-3.1,0.6-3.4,0.1-0.9
				c0.8-1.8,1.3-3.2,2.7-4.7c3.9-3.9,1.7-1.2-0.1-0.3c-2.5,1.4-5.1,2.5-7.6,3.7c-2.6,1.2-5.1,2.3-7.7,3.5c-1.1,0.5-5,2.2-0.7,0.3
				c-1.7,0.8-3.5,1.4-5.2,2.1c-5.8,2.3-11.7,4.5-17.6,6.5c-3,1-5.9,2-8.9,2.9c-1.8,0.6-3.6,1.1-5.4,1.6c-2.2,0.5-2.5,0.6-0.7,0.2
				c1.3-0.4,2.6-0.4,3.9,0.1c-5-0.7,2.9,1.4,0.1,0.2c-3.1-1.4-6.2-2.7-9.4-4c-3.3-1.3-6.7-2.5-10.1-3.6c-6.3-1.9-12.7-3.2-19.2-4.1
				c-17.3-2.4-33.9-1.9-51,1.5c-8.6,1.8-15,10.5-16.1,18.7c-1.1,8,2.6,18.9,10.7,22.4c7.8,3.4,15.3,7.3,22.5,11.9
				c3.7,2.4,7.1,5.2,10.7,7.5c-1.1-0.7-3.1-2.5-0.9-0.7c0.8,0.7,1.6,1.3,2.4,2c1.8,1.5,3.5,3,5.2,4.6c3,2.8,5.9,5.7,8.7,8.7
				c1.4,1.5,2.8,3,4.1,4.6c0.8,1,1.6,2,2.5,3c1.8,2.2,0.1,0.2-0.7-0.9c4.7,7.4,9.9,14.3,14.1,22.1c4.5,8.4,16.3,13.3,25.4,10.3
				c8.8-2.8,17.5-11.7,16.5-21.7c-1.8-18.4-7.1-35.9-17.6-51.3c-6.6-9.7-20.1-15-30.8-8.1c-11,7.1-13.5,19.4-8.1,30.8
				c1.9,3.9,3.7,7.9,5.6,11.8c5.1,10.7,21.2,14.3,30.8,8.1C407.3,415.6,409.8,403.3,404.4,391.9L404.4,391.9z"/>
		</g>
	</g>
</g>
<g id="Layer_1">
	<g>
		<g>
			<path class="st1" d="M-143,395.9h-451.4c-1.7,0-3-1.3-3-3V90.6c0-1.7,1.3-3,3-3H-143c1.7,0,3,1.3,3,3v302.3
				C-140,394.5-141.3,395.9-143,395.9z"/>
			<polygon class="st1" points="-326,391.2 -225.6,483.4 -225.6,380.8 			"/>
		</g>
		<g>
			<path class="st2" d="M411.6,482.9c-2.4,0-4.8-0.8-6.7-2.5l-103.8-88H71.2C31.9,392.5,0,360.4,0,320.9V116.7
				c0-39.5,31.9-71.6,71.2-71.6h369.7c39.2,0,71.2,32.1,71.2,71.6v204.3c0,39.5-31.9,71.6-71.2,71.6h-18.9v80c0,4.1-2.3,7.8-6,9.5
				C414.5,482.6,413,482.9,411.6,482.9z M71.2,66c-27.8,0-50.4,22.7-50.4,50.7v204.3c0,27.9,22.6,50.7,50.4,50.7h233.7
				c2.5,0,4.8,0.9,6.7,2.5l89.6,75.9v-68c0-5.8,4.7-10.4,10.4-10.4h29.3c27.8,0,50.4-22.7,50.4-50.7V116.7
				c0-27.9-22.6-50.7-50.4-50.7C440.8,66,71.2,66,71.2,66z"/>
		</g>
		<g>
			<g>
				<path class="st2" d="M423.4,162.1H88.6c-5.7,0-10.4-4.7-10.4-10.4c0-5.8,4.7-10.4,10.4-10.4h334.7c5.7,0,10.4,4.7,10.4,10.4
					C433.7,157.4,429.1,162.1,423.4,162.1z"/>
			</g>
			<g>
				<path class="st2" d="M423.4,229H88.6c-5.7,0-10.4-4.7-10.4-10.4c0-5.8,4.7-10.4,10.4-10.4h334.7c5.7,0,10.4,4.7,10.4,10.4
					C433.7,224.3,429.1,229,423.4,229z"/>
			</g>
			<g>
				<path class="st2" d="M423.4,295.9H88.6c-5.7,0-10.4-4.7-10.4-10.4c0-5.8,4.7-10.4,10.4-10.4h334.7c5.7,0,10.4,4.7,10.4,10.4
					C433.7,291.2,429.1,295.9,423.4,295.9z"/>
			</g>
		</g>
	</g>
</g>
</svg>
