<svg xmlns="http://www.w3.org/2000/svg" viewBox="0 0 30 30"><defs><style>.cls-1{fill:#90dfaa;}.cls-2{fill:#e6e9ee;}.cls-3{fill:#ffd05b;}.cls-4{fill:#f1543f;}.cls-5{fill:#ff7058;}.cls-6{fill:#fff;}.cls-7{fill:#f9b54c;}.cls-8{fill:#324a5e;}</style></defs><title>Asset 16</title><g id="Layer_2" data-name="Layer 2"><g id="Layer_1-2" data-name="Layer 1"><circle class="cls-1" cx="15" cy="15" r="15"/><path class="cls-2" d="M15.07,21.45s0,0-.09,0,0,0-.09,0Z"/><path class="cls-2" d="M27.07,23.86a15,15,0,0,1-24.19,0,15.34,15.34,0,0,1,7.42-4.09,9,9,0,0,0,.71,4c.9-2.08,3.94-2.27,3.94-2.27s3,.17,4,2.27a9.08,9.08,0,0,0,.71-4A15.31,15.31,0,0,1,27.07,23.86Z"/><path class="cls-3" d="M18.71,18.19h0c0,.31-.19,1.94-3.64,3.26h-.19c-3.45-1.32-3.64-3-3.64-3.26h0a4.76,4.76,0,0,1,.43-1.8A4.57,4.57,0,0,0,15,18.17a4.53,4.53,0,0,0,3.31-1.77A4.35,4.35,0,0,1,18.71,18.19Z"/><path class="cls-4" d="M17,22l-.76,1.51h-2.6L12.92,22A7.05,7.05,0,0,1,15,21.47,6.89,6.89,0,0,1,17,22Z"/><path class="cls-5" d="M12.87,29.86A15.55,15.55,0,0,0,15,30a16.07,16.07,0,0,0,2.13-.14l-.83-6.33H13.7Z"/><path class="cls-6" d="M18.71,18.14S18.87,20,15,21.47c0,0,3,.17,4,2.27C19,23.83,20.74,19.25,18.71,18.14Z"/><path class="cls-6" d="M11.24,18.14c-2,1.11-.26,5.67-.21,5.6.9-2.08,4-2.27,4-2.27C11.08,20,11.24,18.14,11.24,18.14Z"/><path class="cls-7" d="M18.47,16.87A4.84,4.84,0,0,1,15,18.61a4.84,4.84,0,0,1-3.5-1.75,2.82,2.82,0,0,1,.19-.47A4.57,4.57,0,0,0,15,18.17a4.49,4.49,0,0,0,3.31-1.77A2.82,2.82,0,0,1,18.47,16.87Z"/><path class="cls-3" d="M21.43,13.25a2.11,2.11,0,0,1-1.82,1.23c-1.13,2.1-2.79,3.66-4.63,3.66s-3.5-1.58-4.63-3.66a2.16,2.16,0,0,1-1.82-1.23c-.59-1-.61-2,0-2.39a.74.74,0,0,1,.45-.09,5.7,5.7,0,0,0,.9,1.56c-.54-3,1.68-3.33,1.3-6.21,0,0,1.39,3.09,5.39.92l-.31.59c5.57-1.25,3.71,5.31,3.66,5.48a7.45,7.45,0,0,0,1.28-2.34.58.58,0,0,1,.28.09C22,11.2,22,12.28,21.43,13.25Z"/><path class="cls-8" d="M18.19,3a2.76,2.76,0,0,1,1.18.35c-2-2.29-5.29-.83-5.29-.83a3.08,3.08,0,0,1,2.1-.85c-4.7-.71-5.5,2.1-5.5,2.1a1.75,1.75,0,0,1-.19-1,2.75,2.75,0,0,0,0,1.7C10.18,3.61,9,3.76,9,3.76c1,.17,1.16.78,1.16.78A3.21,3.21,0,0,0,8.13,8l.59-.71a5.91,5.91,0,0,0,1.13,5c-.54-3,1.68-3.33,1.3-6.21,0,0,1.39,3.09,5.39.92l-.31.59c5.65-1.28,3.66,5.5,3.66,5.5a7.62,7.62,0,0,0,1.7-5.17l.24.94C22.46,4.63,18.19,3,18.19,3Z"/></g></g></svg>